<svg width="1978" height="1221" viewBox="0 0 1978 1221" fill="none" xmlns="http://www.w3.org/2000/svg">
<g clip-path="url(#clip0_37_1175)">
<path d="M683.065 1065.94H583.919V1218.81H683.065V1065.94Z" fill="black"/>
<path d="M693.542 1122.73H776.525V1218.82H875.671V1122.73H958.654V1065.94H693.542V1122.73Z" fill="black"/>
<path d="M473.426 1145.22L395.902 1065.94H286.507V1218.82H384.329V1139.53L461.853 1218.82H571.261V1065.94H473.426V1145.22Z" fill="black"/>
<path d="M174.703 1130.58C174.703 1152.42 162.688 1162.68 136.931 1162.68C111.175 1162.68 99.1596 1152.42 99.1596 1130.58V1065.94H0V1134.29C0 1198.28 35.8184 1220.99 136.918 1220.99C238.018 1220.99 273.836 1198.28 273.836 1134.29V1065.94H174.69V1130.58H174.703Z" fill="black"/>
<path d="M1726.66 1098.27C1726.66 1056.56 1689.75 1037.11 1612.02 1037.11C1528.16 1037.11 1492.79 1059.39 1492.79 1112.68H1570.74C1570.74 1094.33 1583.62 1087.77 1609.17 1087.77C1634.71 1087.77 1641.92 1092.14 1641.92 1098.91C1641.92 1107.86 1639.08 1107.86 1576.41 1122.5C1506.97 1138.88 1485.35 1171.21 1485.35 1202.43V1218.81H1720.97V1169.23H1583.18C1591.48 1161.36 1615.07 1159.18 1667.25 1149.13C1701.97 1142.57 1726.64 1130.57 1726.64 1098.24L1726.66 1098.27Z" fill="black"/>
<path d="M1942.62 1137.57V1043.21H1824.49L1729.06 1137.13V1188.67H1862.05V1218.81H1942.62V1188.67H1978V1137.57H1942.62ZM1862.05 1137.57H1811.16L1862.05 1087.33V1137.57Z" fill="black"/>
<path d="M1389.72 1065.94H1207.38V1218.81H1389.72C1456.33 1218.81 1488.64 1193.69 1488.64 1142.37C1488.64 1091.05 1456.33 1065.94 1389.72 1065.94ZM1362.21 1167.7H1304.13V1117.04H1362.21C1382.29 1117.04 1391.91 1125.12 1391.91 1142.37C1391.91 1159.62 1382.31 1167.7 1362.21 1167.7Z" fill="black"/>
<path d="M969.131 1218.82H1194.71V1173.17H1063.9V1160.29H1156.93V1124.47H1063.9V1111.58H1194.71V1065.94H969.131V1218.82Z" fill="black"/>
<path d="M989.013 907.005C995.529 893.958 1005.32 884.163 1016.72 876.014C1065.65 841.744 1098.29 786.291 1109.7 724.282H1261.39V68.4993C1179.85 109.286 1126.03 199.008 1114.61 291.982L1091.77 476.338L1103.19 474.705C1127.66 474.705 1148.86 497.534 1148.86 520.363C1148.86 541.586 1132.54 559.503 1111.35 564.401L1083.61 570.931C1037.93 484.487 1011.84 399.636 1011.84 316.443C1011.84 241.387 1023.27 166.358 1023.27 89.6955C1023.27 55.4257 1010.22 24.4477 989.013 -0.0268555C967.793 24.4477 954.747 55.4257 954.747 89.6955C956.379 166.358 966.174 241.387 966.174 316.443C966.174 399.636 940.083 484.474 894.403 570.931L866.666 564.401C845.459 559.503 829.148 541.572 829.148 520.363C829.148 497.521 850.369 474.705 874.828 474.705L886.255 476.338L863.415 291.982C856.885 199.008 798.16 109.272 716.595 68.4993V724.282H868.285C879.712 786.291 913.965 840.125 961.276 876.014C972.69 884.163 982.484 893.958 989.013 907.005ZM1142.34 438.803L1160.28 287.111C1165.18 239.795 1186.4 197.389 1215.75 163.119V497.534H1189.66C1183.13 473.073 1165.19 451.877 1142.35 438.803H1142.34ZM1126.03 608.453C1157.01 598.684 1181.49 574.223 1189.65 543.205H1215.74V678.611H1112.98C1112.98 655.769 1109.7 634.546 1104.83 613.363L1126.03 608.453ZM762.275 163.119C791.644 197.389 811.206 239.795 817.749 287.111L835.691 438.803C812.852 451.877 794.909 473.073 788.393 497.534H762.275V163.119ZM865.034 678.625H762.275V543.218H788.393C796.541 574.236 821 598.684 851.988 608.466L873.196 613.377C868.298 634.56 865.047 655.783 865.047 678.625H865.034ZM1011.83 820.561V724.282H1062.4C1054.25 760.184 1036.31 792.808 1011.83 820.561ZM1068.92 678.625H1011.83C1011.83 650.885 1033.05 626.41 1060.76 623.172C1065.65 641.103 1068.91 659.048 1068.91 678.625H1068.92ZM989.013 469.808C1000.43 508.975 1018.37 546.483 1037.93 582.385C1018.37 587.256 1002.06 600.317 989.013 614.996C975.954 600.303 959.644 587.256 940.082 582.385C959.644 546.483 977.587 508.975 989.013 469.808ZM966.174 820.561C941.701 792.808 923.759 760.198 915.597 724.282H966.174V820.561ZM909.067 678.625C909.067 659.048 912.346 641.103 917.216 623.172C944.966 626.41 966.16 650.885 966.16 678.625H909.054H909.067Z" fill="black"/>
</g>
<defs>
<clipPath id="clip0_37_1175">
<rect width="1978" height="1221" fill="white"/>
</clipPath>
</defs>
</svg>
